<svg id="visual" viewBox="0 0 1000 920" width="1000" height="920" xmlns="http://www.w3.org/2000/svg" xmlns:xlink="http://www.w3.org/1999/xlink" version="1.1"><rect x="0" y="0" width="1000" height="920" fill="#ccedb5"></rect><defs><linearGradient id="grad1_0" x1="8%" y1="100%" x2="100%" y2="0%"><stop offset="28.260869565217394%" stop-color="#ccedb5" stop-opacity="1"></stop><stop offset="71.73913043478261%" stop-color="#ccedb5" stop-opacity="1"></stop></linearGradient></defs><defs><linearGradient id="grad2_0" x1="0%" y1="100%" x2="92%" y2="0%"><stop offset="28.260869565217394%" stop-color="#ccedb5" stop-opacity="1"></stop><stop offset="71.73913043478261%" stop-color="#ccedb5" stop-opacity="1"></stop></linearGradient></defs><g transform="translate(1000, 920)"><path d="M-543.5 0C-538.3 -79.2 -533 -158.4 -486 -201.3C-438.9 -244.2 -350.2 -250.8 -303.3 -303.3C-256.5 -355.9 -251.6 -454.5 -208 -502.2C-164.4 -549.8 -82.2 -546.7 0 -543.5L0 0Z" fill="#e8fcdb"></path></g><g transform="translate(0, 0)"><path d="M543.5 0C507.8 57.8 472.2 115.6 452.7 187.5C433.2 259.5 430 345.5 384.3 384.3C338.7 423.1 250.6 414.6 179.5 433.3C108.4 452 54.2 497.7 0 543.5L0 0Z" fill="#e8fcdb"></path></g></svg>